<svg xmlns="http://www.w3.org/2000/svg" xmlns:xlink="http://www.w3.org/1999/xlink" xmlns:inkscape="http://www.inkscape.org/namespaces/inkscape" version="1.1" width="333.27699" height="82.5497" viewBox="0 0 333.27699 82.5497">
<defs>
<clipPath id="clip_0">
<path transform="matrix(1,0,0,-1,-20.98722,235.8963)" d="M20.98722 153.3466H354.2642V235.8963H20.98722Z" clip-rule="evenodd"/>
</clipPath>
<clipPath id="clip_1">
<path transform="matrix(1,0,0,-1,-20.98722,235.8963)" d="M0 375H375V.000006625H0Z" clip-rule="evenodd"/>
</clipPath>
<clipPath id="clip_2">
<path transform="matrix(1,0,0,-1,-20.98722,235.8963)" d="M0 0H375V375H0Z"/>
</clipPath>
<clipPath id="clip_3">
<path transform="matrix(1,0,0,-1,-20.98722,235.8963)" d="M0 375H375V.000006625H0Z" clip-rule="evenodd"/>
</clipPath>
<clipPath id="clip_4">
<path transform="matrix(1,0,0,-1,-20.98722,235.8963)" d="M0 0H375V375H0Z"/>
</clipPath>
<clipPath id="clip_5">
<path transform="matrix(1,0,0,-1,-20.98722,235.8963)" d="M0 375H375V.000006625H0Z" clip-rule="evenodd"/>
</clipPath>
<clipPath id="clip_6">
<path transform="matrix(1,0,0,-1,-20.98722,235.8963)" d="M0 0H375V375H0Z"/>
</clipPath>
<clipPath id="clip_7">
<path transform="matrix(1,0,0,-1,-20.98722,235.8963)" d="M0 375H375V.000006625H0Z"/>
</clipPath>
<clipPath id="clip_8">
<path transform="matrix(1,0,0,-1,-20.98722,235.8963)" d="M0 375H375V.000006625H0Z"/>
</clipPath>
<clipPath id="clip_9">
<path transform="matrix(1,0,0,-1,-20.98722,235.8963)" d="M254.3635 199.8945 238.9839 215.2741 266.5611 242.8513 281.9407 227.4717 254.3635 199.8945Z"/>
</clipPath>
<clipPath id="clip_10">
<path transform="matrix(1,0,0,-1,-20.98722,235.8963)" d="M239.2077 215.0504 254.5873 199.6708 282.1644 227.248 266.7848 242.6275 239.2077 215.0504Z"/>
</clipPath>
<clipPath id="clip_11">
<path transform="matrix(1,0,0,-1,-20.98722,235.8963)" d="M0 0H375V375H0Z"/>
</clipPath>
<clipPath id="clip_12">
<path transform="matrix(1,0,0,-1,-20.98722,235.8963)" d="M0 375H375V.000006625H0Z"/>
</clipPath>
<clipPath id="clip_13">
<path transform="matrix(1,0,0,-1,-20.98722,235.8963)" d="M0 375H375V.000006625H0Z"/>
</clipPath>
<clipPath id="clip_14">
<path transform="matrix(1,0,0,-1,-20.98722,235.8963)" d="M251.3195 211.9832 242.8342 203.4979 226.9243 219.4078 235.4096 227.8931 251.3195 211.9832Z"/>
</clipPath>
<clipPath id="clip_15">
<path transform="matrix(1,0,0,-1,-20.98722,235.8963)" d="M242.7679 203.4316 251.2532 211.9169 235.3433 227.8268 226.858 219.3415 242.7679 203.4316Z"/>
</clipPath>
<clipPath id="clip_16">
<path transform="matrix(1,0,0,-1,-20.98722,235.8963)" d="M0 0H375V375H0Z"/>
</clipPath>
</defs>
<g clip-path="url(#clip_0)">
<g clip-path="url(#clip_1)">
<g clip-path="url(#clip_2)">
<path transform="matrix(1,0,0,-1,-20.98722,235.8963)" d="M0 375H375V.000006625H0Z" fill="none"/>
</g>
</g>
<g clip-path="url(#clip_3)">
<g clip-path="url(#clip_4)">
<path transform="matrix(1,0,0,-1,-20.98722,235.8963)" d="M0 375H375V.000006625H0Z" fill="none"/>
</g>
</g>
<g clip-path="url(#clip_5)">
<g clip-path="url(#clip_6)">
<text fill="#149d80" xml:space="preserve" transform="matrix(1.077092 0 0 1.077092 -3.2630215 -16.229203)" font-size="86.15" font-family="DMSans" font-weight="bold"><tspan y="89" x=".140625">F</tspan></text>
<text fill="#149d80" xml:space="preserve" transform="matrix(1.077092 0 0 1.077092 -3.2630215 -16.229203)" font-size="86.15" font-family="DMSans" font-weight="bold"><tspan y="89" x="42.08989">a</tspan></text>
<text fill="#149d80" xml:space="preserve" transform="matrix(1.077092 0 0 1.077092 -3.2630215 -16.229203)" font-size="86.15" font-family="DMSans" font-weight="bold"><tspan y="89" x="86.27881">r</tspan></text>
<text fill="#149d80" xml:space="preserve" transform="matrix(1.077092 0 0 1.077092 -3.2630215 -16.229203)" font-size="86.15" font-family="DMSans" font-weight="bold"><tspan y="89" x="114.8763">m</tspan></text>
<text fill="#149d80" xml:space="preserve" transform="matrix(1.077092 0 0 1.077092 -3.2630215 -16.229203)" font-size="86.15" font-family="DMSans" font-weight="bold"><tspan y="89" x="190.0758">o</tspan></text>
<text fill="#149d80" xml:space="preserve" transform="matrix(1.077092 0 0 1.077092 -3.2630215 -16.229203)" font-size="86.15" font-family="DMSans" font-weight="bold"><tspan y="89" x="236.7628">r</tspan></text>
<text fill="#149d80" xml:space="preserve" transform="matrix(1.077092 0 0 1.077092 -3.2630215 -16.229203)" font-size="86.15" font-family="DMSans" font-weight="bold"><tspan y="89" x="265.3603">a</tspan></text>
</g>
</g>
<g clip-path="url(#clip_7)">
<g clip-path="url(#clip_8)">
<g clip-path="url(#clip_9)">
<g clip-path="url(#clip_10)">
<g clip-path="url(#clip_11)">
<path transform="matrix(1,0,0,-1,-20.98722,235.8963)" d="M267.0751 214.9664C274.0122 221.9035 273.3079 233.8538 273.3079 233.8538 273.3079 233.8538 261.2112 234.7045 254.274 227.7674 247.3366 220.8299 248.1868 208.7327 248.1868 208.7327 248.1868 208.7327 260.1376 208.0289 267.0751 214.9664" fill="#149d80"/>
</g>
</g>
</g>
</g>
</g>
<g clip-path="url(#clip_12)">
<g clip-path="url(#clip_13)">
<g clip-path="url(#clip_14)">
<g clip-path="url(#clip_15)">
<g clip-path="url(#clip_16)">
<path transform="matrix(1,0,0,-1,-20.98722,235.8963)" d="M242.8131 219.1578C238.8989 223.072 232.156 222.6746 232.156 222.6746 232.156 222.6746 231.676 215.8491 235.5902 211.9349 239.5047 208.0205 246.3304 208.5003 246.3304 208.5003 246.3304 208.5002 246.7275 215.2434 242.8131 219.1578" fill="#149d80"/>
</g>
</g>
</g>
</g>
</g>
</g>
</svg>
